<?xml version="1.0" encoding="UTF-8" standalone="no"?>
<svg
   xmlns:dc="http://purl.org/dc/elements/1.1/"
   xmlns:cc="http://creativecommons.org/ns#"
   xmlns:rdf="http://www.w3.org/1999/02/22-rdf-syntax-ns#"
   xmlns:svg="http://www.w3.org/2000/svg"
   xmlns="http://www.w3.org/2000/svg"
   xmlns:sodipodi="http://sodipodi.sourceforge.net/DTD/sodipodi-0.dtd"
   xmlns:inkscape="http://www.inkscape.org/namespaces/inkscape"
   sodipodi:docname="Logo Myint met tekst v0.2.svg"
   inkscape:version="1.0 (4035a4f, 2020-05-01)"
   id="svg8"
   version="1.1"
   viewBox="0 0 149.43777 78.099335"
   height="78.099335mm"
   width="149.43777mm">
  <defs
     id="defs2" />
  <sodipodi:namedview
     fit-margin-bottom="0"
     fit-margin-right="0"
     fit-margin-left="0"
     fit-margin-top="0"
     inkscape:document-rotation="0"
     objecttolerance="1"
     inkscape:window-maximized="0"
     inkscape:window-y="102"
     inkscape:window-x="937"
     inkscape:window-height="1337"
     inkscape:window-width="1901"
     showgrid="false"
     inkscape:current-layer="layer1"
     inkscape:document-units="mm"
     inkscape:cy="731.93897"
     inkscape:cx="301.97269"
     inkscape:zoom="0.76095915"
     inkscape:pageshadow="2"
     inkscape:pageopacity="0.0"
     borderopacity="1.0"
     bordercolor="#666666"
     pagecolor="#ffffff"
     id="base" />
  <metadata
     id="metadata5">
    <rdf:RDF>
      <cc:Work
         rdf:about="">
        <dc:format>image/svg+xml</dc:format>
        <dc:type
           rdf:resource="http://purl.org/dc/dcmitype/StillImage" />
        <dc:title></dc:title>
      </cc:Work>
    </rdf:RDF>
  </metadata>
  <g
     transform="translate(-26.487453,-20.674106)"
     id="layer1"
     inkscape:groupmode="layer"
     inkscape:label="Layer 1">
    <g
       inkscape:export-ydpi="90.130997"
       inkscape:export-xdpi="90.130997"
       inkscape:export-filename="C:\Users\Ruben\Desktop\MyinT Logo v0.1.png"
       style="display:inline"
       id="g6831"
       transform="matrix(1.9095158,0.30340584,-0.30340584,1.9095158,70.05655,-383.46295)">
      <path
         style="fill:#e6e6e6;fill-opacity:1;stroke-width:0.365992"
         d="m 39.693532,224.61838 c -0.102375,-0.2667 -0.140072,-2.78247 -0.08384,-5.59062 l 0.102374,-5.10574 h 5.490452 5.490453 v 5.4893 5.48931 l -5.406659,0.10132 c -4.223362,0.0792 -5.447387,-0.004 -5.592769,-0.38357 z m 11.54848,-11.29166 c 0,0 -0.549038,0.5953 0,0 z"
         id="path6827"
         inkscape:connector-curvature="0"
         sodipodi:nodetypes="cccccccccccc" />
      <path
         sodipodi:nodetypes="cccccccccccc"
         inkscape:connector-curvature="0"
         id="path6829"
         d="m 40.912309,223.58714 c -0.081,-0.21108 -0.110834,-2.20212 -0.06634,-4.42457 l 0.081,-4.0408 h 4.344372 4.34437 v 4.34438 4.34436 l -4.278068,0.0803 c -3.341774,0.0627 -4.310294,-0.003 -4.425331,-0.30357 z m 9.137842,-8.9365 c 0,0 -0.434432,0.47113 0,0 z"
         style="opacity:0.7;fill:#69c306;fill-opacity:1;stroke-width:0.289625" />
    </g>
    <g
       inkscape:export-ydpi="90.130997"
       inkscape:export-xdpi="90.130997"
       inkscape:export-filename="C:\Users\Ruben\Desktop\MyinT Logo v0.1.png"
       style="display:inline"
       id="g6837"
       transform="matrix(1.2579644,0,0,1.2579644,39.708493,-236.6061)">
      <path
         style="fill:#e6e6e6;stroke-width:0.692315"
         d="m 33.820134,218.55615 c -1.516336,-1.3043 -1.990328,-2.31409 -1.990328,-4.24021 0,-3.52039 2.176043,-5.58139 5.892855,-5.58139 3.425028,0 5.461119,2.05322 5.461119,5.50706 0,3.00808 -1.858187,5.14406 -4.898213,5.63048 -1.985985,0.31781 -2.868433,0.0578 -4.465433,-1.31594 z"
         id="path6833"
         inkscape:connector-curvature="0"
         sodipodi:nodetypes="cssscc" />
      <path
         sodipodi:nodetypes="cssscc"
         inkscape:connector-curvature="0"
         id="path6835"
         d="m 35.115356,217.08751 c -1.014407,-0.87256 -1.3315,-1.54809 -1.3315,-2.83664 0,-2.35509 1.455741,-3.73387 3.942235,-3.73387 2.291293,0 3.653408,1.37357 3.653408,3.68414 0,2.01237 -1.2431,3.44131 -3.276833,3.76672 -1.328595,0.2126 -1.918939,0.0387 -2.98731,-0.88035 z"
         style="opacity:1;fill:#ed625e;fill-opacity:1;stroke-width:0.463149" />
    </g>
    <g
       inkscape:export-ydpi="90.130997"
       inkscape:export-xdpi="90.130997"
       inkscape:export-filename="C:\Users\Ruben\Desktop\MyinT Logo v0.1.png"
       style="display:inline"
       transform="matrix(1.9071696,0,0,1.9071696,-15.394245,-334.8615)"
       id="g6843">
      <path
         sodipodi:nodetypes="cssscc"
         inkscape:connector-curvature="0"
         id="path6839"
         d="m 33.820134,218.55615 c -1.516336,-1.3043 -1.990328,-2.31409 -1.990328,-4.24021 0,-3.52039 2.176043,-5.58139 5.892855,-5.58139 3.425028,0 5.461119,2.05322 5.461119,5.50706 0,3.00808 -1.858187,5.14406 -4.898213,5.63048 -1.985985,0.31781 -2.868433,0.0578 -4.465433,-1.31594 z"
         style="fill:#e6e6e6;stroke-width:0.692315" />
      <path
         style="opacity:0.7;fill:#63ca0c;fill-opacity:1;stroke-width:0.518616"
         d="m 34.813969,217.43318 c -1.135894,-0.97706 -1.490962,-1.73349 -1.490962,-3.17636 0,-2.63714 1.630082,-4.18104 4.414361,-4.18104 2.565701,0 4.090944,1.53807 4.090944,4.12536 0,2.25337 -1.391975,3.85344 -3.66927,4.21782 -1.487709,0.23806 -2.148753,0.0433 -3.345073,-0.98578 z"
         id="path6841"
         inkscape:connector-curvature="0"
         sodipodi:nodetypes="cssscc" />
    </g>
    <g
       inkscape:export-ydpi="90.130997"
       inkscape:export-xdpi="90.130997"
       inkscape:export-filename="C:\Users\Ruben\Desktop\MyinT Logo v0.1.png"
       style="display:inline"
       id="g6849"
       transform="matrix(0.67347266,0.74331247,-0.74331247,0.67347266,208.34647,-152.915)">
      <path
         sodipodi:nodetypes="cccccccccccc"
         inkscape:connector-curvature="0"
         id="path6845"
         d="m 39.693532,224.61838 c -0.102375,-0.2667 -0.140072,-2.78247 -0.08384,-5.59062 l 0.102374,-5.10574 h 5.490452 5.490453 v 5.4893 5.48931 l -5.406659,0.10132 c -4.223362,0.0792 -5.447387,-0.004 -5.592769,-0.38357 z m 11.54848,-11.29166 c 0,0 -0.549038,0.5953 0,0 z"
         style="fill:#e6e6e6;fill-opacity:1;stroke-width:0.365992" />
      <path
         style="opacity:0.7;fill:#fedb00;fill-opacity:1;stroke-width:0.234058"
         d="m 41.827865,222.72746 c -0.06546,-0.17058 -0.08957,-1.77963 -0.05361,-3.57568 l 0.06546,-3.26555 h 3.510875 3.510874 v 3.51088 3.51087 l -3.457292,0.0649 c -2.700633,0.0506 -3.483336,-0.003 -3.576302,-0.24533 z m 7.384686,-7.22197 c 0,0 -0.351083,0.38074 0,0 z"
         id="path6847"
         inkscape:connector-curvature="0"
         sodipodi:nodetypes="cccccccccccc" />
    </g>
    <g
       inkscape:export-ydpi="90.130997"
       inkscape:export-xdpi="90.130997"
       inkscape:export-filename="C:\Users\Ruben\Desktop\MyinT Logo v0.1.png"
       style="display:inline"
       transform="matrix(1.9443997,-0.47010224,0.47010224,1.9443997,-136.2549,-350.99777)"
       id="g6855">
      <path
         sodipodi:nodetypes="cccccccccccc"
         inkscape:connector-curvature="0"
         id="path6851"
         d="m 39.693532,224.61838 c -0.102375,-0.2667 -0.140072,-2.78247 -0.08384,-5.59062 l 0.102374,-5.10574 h 5.490452 5.490453 v 5.4893 5.48931 l -5.406659,0.10132 c -4.223362,0.0792 -5.447387,-0.004 -5.592769,-0.38357 z m 11.54848,-11.29166 c 0,0 -0.549038,0.5953 0,0 z"
         style="fill:#e6e6e6;fill-opacity:1;stroke-width:0.365992" />
      <path
         style="opacity:0.7;fill:#ef2a24;fill-opacity:1;stroke-width:0.263941"
         d="m 41.35007,223.21764 c -0.07382,-0.19236 -0.101006,-2.00684 -0.06045,-4.0322 l 0.07382,-3.68247 h 3.959121 3.95912 v 3.95912 3.95912 l -3.898697,0.0732 c -3.045433,0.0571 -3.928066,-0.003 -4.032902,-0.27665 z m 8.327515,-8.14403 c 0,0 -0.395907,0.42936 0,0 z"
         id="path6853"
         inkscape:connector-curvature="0"
         sodipodi:nodetypes="cccccccccccc" />
    </g>
    <g
       inkscape:export-ydpi="90.130997"
       inkscape:export-xdpi="90.130997"
       inkscape:export-filename="C:\Users\Ruben\Desktop\MyinT Logo v0.1.png"
       style="display:inline"
       transform="matrix(0.33440044,0.98940435,-0.98940435,0.33440044,240.81581,-39.367445)"
       id="g6861">
      <path
         inkscape:connector-curvature="0"
         id="path6857"
         d="M 29.346468,224.72055 C 28.90968,225.16947 9.2777877,220.1963 9.1074045,219.59357 8.9370212,218.99084 23.059855,204.47571 23.667027,204.62952 c 0.607171,0.15381 6.11623,19.6421 5.679441,20.09103 z"
         inkscape:transform-center-y="-1.6258075"
         inkscape:transform-center-x="1.4684791"
         style="opacity:1;fill:#e6e6e6;fill-opacity:1;stroke:none;stroke-width:0.10167;stroke-miterlimit:4;stroke-dasharray:none;stroke-opacity:0.995169" />
      <path
         inkscape:connector-curvature="0"
         id="path6859"
         d="m 26.574878,222.13663 c -0.303118,0.31153 -13.927054,-3.13969 -14.045295,-3.55797 -0.118241,-0.41828 9.682577,-10.49134 10.103935,-10.3846 0.421359,0.10674 4.244478,13.63103 3.94136,13.94257 z"
         inkscape:transform-center-y="-1.1282673"
         inkscape:transform-center-x="1.0190798"
         style="opacity:0.7;fill:#db84fa;fill-opacity:1;stroke:none;stroke-width:0.0705556;stroke-miterlimit:4;stroke-dasharray:none;stroke-opacity:0.995169" />
    </g>
    <g
       inkscape:export-ydpi="90.130997"
       inkscape:export-xdpi="90.130997"
       inkscape:export-filename="C:\Users\Ruben\Desktop\MyinT Logo v0.1.png"
       style="display:inline"
       transform="matrix(-0.02290149,1.3757855,-1.3757855,-0.02290149,341.63519,10.59603)"
       id="g6867"
       inkscape:transform-center-x="-19.398247"
       inkscape:transform-center-y="20.279973">
      <path
         style="fill:#e6e6e6;fill-opacity:1;stroke-width:0.365992"
         d="m 39.693532,224.61838 c -0.102375,-0.2667 -0.140072,-2.78247 -0.08384,-5.59062 l 0.102374,-5.10574 h 5.490452 5.490453 v 5.4893 5.48931 l -5.406659,0.10132 c -4.223362,0.0792 -5.447387,-0.004 -5.592769,-0.38357 z m 11.54848,-11.29166 c 0,0 -0.549038,0.5953 0,0 z"
         id="path6863"
         inkscape:connector-curvature="0"
         sodipodi:nodetypes="cccccccccccc" />
      <path
         sodipodi:nodetypes="cccccccccccc"
         inkscape:connector-curvature="0"
         id="path6865"
         d="m 41.827865,222.72746 c -0.06546,-0.17058 -0.08957,-1.77963 -0.05361,-3.57568 l 0.06546,-3.26555 h 3.510875 3.510874 v 3.51088 3.51087 l -3.457292,0.0649 c -2.700633,0.0506 -3.483336,-0.003 -3.576302,-0.24533 z m 7.384686,-7.22197 c 0,0 -0.351083,0.38074 0,0 z"
         style="opacity:0.7;fill:#72d1f2;fill-opacity:1;stroke-width:0.234058" />
    </g>
    <g
       inkscape:export-ydpi="90.130997"
       inkscape:export-xdpi="90.130997"
       inkscape:export-filename="C:\Users\Ruben\Desktop\MyinT Logo v0.1.png"
       style="display:inline"
       id="g6873"
       transform="matrix(0.17968955,0.37744635,-0.37744635,0.17968955,133.44516,40.79291)">
      <path
         style="opacity:1;fill:#e6e6e6;fill-opacity:1;stroke:none;stroke-width:0.116108;stroke-miterlimit:4;stroke-dasharray:none;stroke-opacity:0.995169"
         inkscape:transform-center-x="1.6770223"
         inkscape:transform-center-y="-1.8566925"
         d="M 30.417433,226.29776 C 29.918615,226.81043 7.4987453,221.13101 7.3041656,220.44269 7.1095857,219.75436 23.238041,203.1779 23.931439,203.35355 c 0.693397,0.17565 6.984812,22.43153 6.485994,22.94421 z"
         id="path6869"
         inkscape:connector-curvature="0" />
      <path
         style="opacity:0.7;fill:#fddc02;fill-opacity:1;stroke:none;stroke-width:0.0705556;stroke-miterlimit:4;stroke-dasharray:none;stroke-opacity:0.995169"
         inkscape:transform-center-x="1.0190798"
         inkscape:transform-center-y="-1.1282673"
         d="m 26.574878,222.13663 c -0.303118,0.31153 -13.927054,-3.13969 -14.045295,-3.55797 -0.118241,-0.41828 9.682577,-10.49134 10.103935,-10.3846 0.421359,0.10674 4.244478,13.63103 3.94136,13.94257 z"
         id="path6871"
         inkscape:connector-curvature="0" />
    </g>
    <g
       inkscape:export-ydpi="90.130997"
       inkscape:export-xdpi="90.130997"
       inkscape:export-filename="C:\Users\Ruben\Desktop\MyinT Logo v0.1.png"
       style="display:inline"
       transform="matrix(0.84423742,0.7745413,-0.7745413,0.84423742,209.04458,-167.0812)"
       id="g6879">
      <path
         inkscape:connector-curvature="0"
         id="path6875"
         d="M 29.346468,224.72055 C 28.90968,225.16947 9.2777877,220.1963 9.1074045,219.59357 8.9370212,218.99084 23.059855,204.47571 23.667027,204.62952 c 0.607171,0.15381 6.11623,19.6421 5.679441,20.09103 z"
         inkscape:transform-center-y="-1.6258075"
         inkscape:transform-center-x="1.4684791"
         style="opacity:1;fill:#e6e6e6;fill-opacity:1;stroke:none;stroke-width:0.10167;stroke-miterlimit:4;stroke-dasharray:none;stroke-opacity:0.995169" />
      <path
         inkscape:connector-curvature="0"
         id="path6877"
         d="m 26.574878,222.13663 c -0.303118,0.31153 -13.927054,-3.13969 -14.045295,-3.55797 -0.118241,-0.41828 9.682577,-10.49134 10.103935,-10.3846 0.421359,0.10674 4.244478,13.63103 3.94136,13.94257 z"
         inkscape:transform-center-y="-1.1282673"
         inkscape:transform-center-x="1.0190798"
         style="opacity:0.7;fill:#3bc2f1;fill-opacity:1;stroke:none;stroke-width:0.0705556;stroke-miterlimit:4;stroke-dasharray:none;stroke-opacity:0.995169" />
    </g>
    <g
       inkscape:export-ydpi="90.130997"
       inkscape:export-xdpi="90.130997"
       inkscape:export-filename="C:\Users\Ruben\Desktop\MyinT Logo v0.1.png"
       style="display:inline"
       id="g6885"
       transform="matrix(0.20564803,1.1271025,-1.1271025,0.20564803,312.19936,-7.09057)">
      <path
         style="opacity:1;fill:#e6e6e6;fill-opacity:1;stroke:none;stroke-width:0.10167;stroke-miterlimit:4;stroke-dasharray:none;stroke-opacity:0.995169"
         inkscape:transform-center-x="1.4684791"
         inkscape:transform-center-y="-1.6258075"
         d="M 29.346468,224.72055 C 28.90968,225.16947 9.2777877,220.1963 9.1074045,219.59357 8.9370212,218.99084 23.059855,204.47571 23.667027,204.62952 c 0.607171,0.15381 6.11623,19.6421 5.679441,20.09103 z"
         id="path6881"
         inkscape:connector-curvature="0" />
      <path
         style="opacity:0.7;fill:#ff6600;fill-opacity:1;stroke:none;stroke-width:0.0705556;stroke-miterlimit:4;stroke-dasharray:none;stroke-opacity:0.995169"
         inkscape:transform-center-x="1.0190798"
         inkscape:transform-center-y="-1.1282673"
         d="m 26.574878,222.13663 c -0.303118,0.31153 -13.927054,-3.13969 -14.045295,-3.55797 -0.118241,-0.41828 9.682577,-10.49134 10.103935,-10.3846 0.421359,0.10674 4.244478,13.63103 3.94136,13.94257 z"
         id="path6883"
         inkscape:connector-curvature="0" />
    </g>
    <g
       inkscape:export-ydpi="90.130997"
       inkscape:export-xdpi="90.130997"
       inkscape:export-filename="C:\Users\Ruben\Desktop\MyinT Logo v0.1.png"
       style="display:inline"
       transform="matrix(1.9757551,0,0,1.9757551,-33.156876,-385.59247)"
       id="g6891">
      <path
         sodipodi:nodetypes="cssscc"
         inkscape:connector-curvature="0"
         id="path6887"
         d="m 33.820134,218.55615 c -1.516336,-1.3043 -1.990328,-2.31409 -1.990328,-4.24021 0,-3.52039 2.176043,-5.58139 5.892855,-5.58139 3.425028,0 5.461119,2.05322 5.461119,5.50706 0,3.00808 -1.858187,5.14406 -4.898213,5.63048 -1.985985,0.31781 -2.868433,0.0578 -4.465433,-1.31594 z"
         style="fill:#e6e6e6;stroke-width:0.692315" />
      <path
         style="opacity:1;fill:#f7df45;fill-opacity:1;stroke-width:0.517759"
         d="m 34.777377,217.46909 c -1.134016,-0.97544 -1.488498,-1.73063 -1.488498,-3.17111 0,-2.63278 1.627389,-4.17413 4.407067,-4.17413 2.561461,0 4.084184,1.53552 4.084184,4.11854 0,2.24965 -1.389674,3.84707 -3.663207,4.21085 -1.48525,0.23767 -2.145202,0.0433 -3.339546,-0.98415 z"
         id="path6889"
         inkscape:connector-curvature="0"
         sodipodi:nodetypes="cssscc" />
    </g>
    <flowRoot
       style="font-style:normal;font-variant:normal;font-weight:normal;font-stretch:normal;font-size:40px;line-height:1.25;font-family:'Sigmar One';-inkscape-font-specification:'Sigmar One';letter-spacing:0px;word-spacing:0px;fill:#000000;fill-opacity:1;stroke:none"
       id="flowRoot4518"
       xml:space="preserve"><flowRegion
         style="font-style:normal;font-variant:normal;font-weight:normal;font-stretch:normal;font-family:'Sigmar One';-inkscape-font-specification:'Sigmar One'"
         id="flowRegion4520"><rect
           style="-inkscape-font-specification:'Sigmar One';font-family:'Sigmar One';font-weight:normal;font-style:normal;font-stretch:normal;font-variant:normal;"
           y="76.54818"
           x="81.375389"
           height="218.32422"
           width="613.2926"
           id="rect4522" /></flowRegion><flowPara
         id="flowPara4524" /></flowRoot>
    <g
       inkscape:export-ydpi="90.130997"
       inkscape:export-xdpi="90.130997"
       inkscape:export-filename="C:\Users\Ruben\Desktop\MyinT Logo v0.1.png"
       aria-label="MyinT"
       style="font-style:normal;font-variant:normal;font-weight:normal;font-stretch:normal;font-size:22.5778px;line-height:1.25;font-family:'Maiandra GD';-inkscape-font-specification:'Maiandra GD';letter-spacing:0px;word-spacing:0px;fill:#000000;fill-opacity:1;stroke:none;stroke-width:0.264583"
       id="g842"
       transform="matrix(1.7121222,0,0,1.7121222,11.838347,-293.31956)">
      <path
         d="m 53.613268,209.04495 q -0.198438,0.71658 -0.297656,1.47726 -0.08819,0.74965 -0.08819,1.64262 0,3.56085 0.451997,6.51536 0.451996,2.95452 1.333941,5.11528 -0.529167,0.28663 -0.992188,0.42995 -0.463021,0.13229 -0.903993,0.13229 -0.463021,0 -0.727604,-0.19844 -0.264583,-0.19843 -0.385851,-0.63941 -0.06615,-0.26458 -0.242535,-4.02387 -0.176388,-3.77031 -0.496093,-7.35321 -2.30408,4.34358 -4.850695,9.51398 -0.463021,0.95911 -0.63941,1.30086 -0.209461,0.41893 -0.418923,0.59532 -0.198438,0.17639 -0.463021,0.17639 -0.529167,0 -1.091406,-1.21268 -0.132292,-0.2756 -0.209462,-0.42995 -1.785938,-3.62699 -3.02066,-6.04131 -1.223698,-2.42535 -2.017448,-3.85851 -0.187413,2.78915 -0.363802,6.84609 -0.165364,4.04592 -0.38585,4.67431 -0.110244,0.34175 -0.33073,0.49609 -0.220486,0.15434 -0.595312,0.15434 -0.286632,0 -0.705556,-0.13229 -0.407899,-0.14332 -0.959114,-0.42995 0.859896,-2.14974 1.311892,-5.11528 0.451997,-2.96553 0.451997,-6.58151 0,-0.87092 -0.09922,-1.60954 -0.08819,-0.74966 -0.264583,-1.44419 0.363802,-0.3197 0.661458,-0.46302 0.30868,-0.14332 0.650434,-0.14332 1.069358,0 3.428559,4.88377 0.892969,1.84106 1.444184,2.93247 1.245747,2.46944 1.697743,3.26319 0.463021,0.79375 0.606337,0.79375 0.297656,0 3.009635,-5.51215 1.124479,-2.27101 1.796962,-3.627 0.727604,-1.47725 1.27882,-2.10564 0.562239,-0.62839 1.113454,-0.62839 0.319705,0 0.617362,0.14332 0.30868,0.14332 0.694531,0.46302 z"
         style="font-size:22.5778px;stroke-width:0.264583"
         id="path832"
         inkscape:connector-curvature="0" />
      <path
         d="m 58.155282,227.72012 c 0.374826,-0.30133 0.71658,-0.67248 1.02526,-1.11345 0.31603,-0.43362 0.621036,-0.97381 0.915017,-1.62057 l 0.363802,-0.76068 c -1.58015,-3.70417 -2.686255,-6.09277 -3.318316,-7.1658 -0.62471,-1.07303 -1.172251,-1.64997 -1.642621,-1.73081 0.146991,-0.60267 0.356453,-1.07671 0.628385,-1.42214 0.271934,-0.34543 0.565915,-0.51814 0.881945,-0.51814 0.227836,0 0.415249,0.0551 0.562239,0.16536 0.146991,0.10289 0.290307,0.29766 0.429948,0.58429 0.03675,0.0735 0.422598,1.00321 1.157552,2.78915 0.734954,1.77859 1.506656,3.5094 2.315105,5.19245 1.014236,-2.13872 1.771238,-3.85851 2.271006,-5.15938 0.507119,-1.30087 0.760678,-2.19751 0.760678,-2.68993 0,-0.0955 -0.01102,-0.18741 -0.03307,-0.27561 -0.0147,-0.0882 -0.03307,-0.17271 -0.05512,-0.25355 0.05145,-0.0147 0.132292,-0.0405 0.242535,-0.0772 0.536516,-0.18374 0.918692,-0.27561 1.146528,-0.27561 0.264584,0 0.474045,0.0735 0.628385,0.22048 0.15434,0.14699 0.23151,0.34176 0.23151,0.58429 0,0.31603 -0.521817,1.55076 -1.565451,3.70417 -1.036284,2.15341 -1.921904,4.12676 -2.656858,5.92005 -0.220486,0.53652 -0.503443,1.2531 -0.848871,2.14974 -0.77905,2.02847 -1.400086,3.04271 -1.863108,3.04271 -0.242534,0 -0.499768,-0.11392 -0.771701,-0.34175 -0.271932,-0.22049 -0.54019,-0.53652 -0.804774,-0.9481 z"
         style="font-size:22.5778px;stroke-width:0.264583"
         id="path834"
         inkscape:connector-curvature="0"
         sodipodi:nodetypes="cccccccscccccscccscscccsccc" />
      <path
         d="m 71.406498,223.86162 c -0.308681,0.16904 -0.602663,0.29398 -0.881945,0.37482 -0.279282,0.0809 -0.54754,0.12127 -0.804774,0.12127 -0.360128,0 -0.606337,-0.0955 -0.738629,-0.28663 -0.124942,-0.19844 -0.187413,-0.59164 -0.187413,-1.1796 0,-0.33808 0.03307,-1.09508 0.09922,-2.27101 0.06615,-1.17593 0.09922,-2.18649 0.09922,-3.03168 0,-0.91869 -0.0441,-1.66467 -0.132292,-2.23794 -0.08819,-0.57326 -0.231511,-1.062 -0.429948,-1.46623 0.271933,-0.16169 0.551215,-0.28295 0.837847,-0.3638 0.286632,-0.0882 0.569589,-0.13229 0.848872,-0.13229 0.338078,0 0.569589,0.0845 0.694531,0.25356 0.124942,0.16169 0.187413,0.46669 0.187413,0.91501 0,0.11759 -0.03307,0.76068 -0.09922,1.92926 -0.06615,1.16857 -0.09922,2.27835 -0.09922,3.32934 0,0.98483 0.04777,1.80063 0.143316,2.44739 0.102893,0.64676 0.257233,1.1796 0.463021,1.59853 z m -0.08819,-13.83551 c 0,0.41893 -0.146991,0.76803 -0.440972,1.04731 -0.293982,0.27929 -0.665133,0.41893 -1.113455,0.41893 -0.389526,0 -0.698206,-0.11024 -0.926041,-0.33073 -0.227836,-0.22049 -0.341754,-0.51814 -0.341754,-0.89297 0,-0.41157 0.14699,-0.76068 0.440972,-1.04731 0.293981,-0.29398 0.650434,-0.44097 1.069358,-0.44097 0.382176,0 0.694531,0.11759 0.937066,0.35278 0.249884,0.23518 0.374826,0.53283 0.374826,0.89296 z"
         style="font-size:22.5778px;stroke-width:0.264583"
         id="path836"
         inkscape:connector-curvature="0"
         sodipodi:nodetypes="ccscssscccscssscccscscscscs" />
      <path
         d="m 75.871341,215.89105 c -0.0147,0.80845 -0.03675,1.67937 -0.06615,2.61276 -0.02205,0.92604 -0.03307,1.44786 -0.03307,1.56545 0,0.95544 0.0441,1.73082 0.132292,2.32613 0.08819,0.59531 0.227835,1.0914 0.418923,1.48828 -0.30868,0.16169 -0.591637,0.28295 -0.848871,0.3638 -0.257234,0.0735 -0.510793,0.11024 -0.760677,0.11024 -0.338079,0 -0.569589,-0.0955 -0.694531,-0.28663 -0.124943,-0.19109 -0.187414,-0.59164 -0.187414,-1.20165 0,-0.13229 0.03675,-0.81213 0.110243,-2.0395 0.08084,-1.23472 0.121268,-2.39962 0.121268,-3.4947 0,-1.03629 -0.04042,-1.83739 -0.121268,-2.4033 -0.08084,-0.56591 -0.213136,-1.07303 -0.396875,-1.52135 0.16169,-0.0515 0.32338,-0.0919 0.48507,-0.12127 0.169039,-0.0294 0.330729,-0.0441 0.485069,-0.0441 0.389525,0 0.698206,0.11024 0.926042,0.33073 0.227835,0.21314 0.356452,0.51815 0.385851,0.91502 0.551215,-0.39687 1.135503,-0.70188 1.752864,-0.91502 0.617361,-0.22049 1.227373,-0.33073 1.830035,-0.33073 0.734954,0 1.392738,0.16169 1.973351,0.48507 0.587963,0.31603 1.036284,0.75701 1.344965,1.32292 0.213137,0.38953 0.363802,0.8452 0.451996,1.36701 0.09554,0.51447 0.143316,1.30087 0.143316,2.3592 0,0.11025 -0.0073,0.37116 -0.02205,0.78273 -0.0073,0.41157 -0.01102,0.76803 -0.01102,1.06936 0,0.757 0.04777,1.40743 0.143316,1.9513 0.102893,0.54387 0.253559,0.97014 0.451996,1.27882 -0.345428,0.16904 -0.646759,0.29398 -0.903993,0.37482 -0.249884,0.0809 -0.47772,0.12127 -0.683507,0.12127 -0.345428,0 -0.587963,-0.0882 -0.727604,-0.26458 -0.132292,-0.18374 -0.198438,-0.52549 -0.198438,-1.02526 0,-0.30133 0.02205,-0.94809 0.06615,-1.94028 0.05145,-0.99954 0.07717,-1.84841 0.07717,-2.54661 0,-1.33027 -0.202112,-2.29306 -0.606336,-2.88837 -0.404225,-0.60267 -1.054659,-0.904 -1.951303,-0.904 -0.455671,0 -0.94809,0.0956 -1.477257,0.28664 -0.529167,0.18373 -1.065683,0.45567 -1.609548,0.8158 z"
         style="font-size:22.5778px;stroke-width:0.264583"
         id="path838"
         inkscape:connector-curvature="0"
         sodipodi:nodetypes="ccssccscscscccscccscccscscccscscscsccc" />
      <path
         d="m 90.844279,223.79547 c -0.352778,0.19844 -0.687182,0.34543 -1.003212,0.44097 -0.31603,0.0956 -0.613687,0.14332 -0.892969,0.14332 -0.374826,0 -0.63941,-0.10289 -0.79375,-0.30868 -0.146991,-0.21314 -0.220486,-0.60634 -0.220486,-1.1796 0,-0.37483 0.03675,-1.51401 0.110243,-3.41754 0.08084,-1.91088 0.121268,-3.63067 0.121268,-5.15937 0,-0.38953 -0.01102,-1.21268 -0.03307,-2.46945 -0.0073,-0.61001 -0.01102,-1.0914 -0.01102,-1.44418 h -0.837848 c -1.080382,0 -1.954977,0.0478 -2.623784,0.14332 -0.661459,0.0955 -1.172252,0.2462 -1.532379,0.45199 -0.16904,-0.32338 -0.293982,-0.59899 -0.374826,-0.82682 -0.08085,-0.23519 -0.121268,-0.44097 -0.121268,-0.61736 0,-0.33073 0.113918,-0.56224 0.341754,-0.69453 0.227835,-0.13964 0.62471,-0.20946 1.190625,-0.20946 0.293981,0 1.135503,0.0331 2.524566,0.0992 1.389062,0.0661 2.634809,0.0992 3.737239,0.0992 1.330266,0 2.3886,-0.0515 3.175,-0.15434 0.79375,-0.10289 1.396412,-0.26826 1.807987,-0.49609 0.14699,0.23519 0.253558,0.452 0.319704,0.65043 0.07349,0.19109 0.110243,0.37116 0.110243,0.54019 0,0.39688 -0.146991,0.69086 -0.440972,0.88195 -0.293982,0.18374 -0.749653,0.27561 -1.367014,0.27561 -0.227836,0 -0.779051,-0.0184 -1.653645,-0.0551 -0.874596,-0.0367 -1.572802,-0.0625 -2.094619,-0.0772 -0.05145,1.28617 -0.09187,2.49884 -0.121267,3.63802 -0.02205,1.13183 -0.03307,2.17546 -0.03307,3.1309 0,1.83003 0.05512,3.26687 0.165365,4.3105 0.117592,1.04363 0.301331,1.81166 0.551215,2.30408 z"
         style="font-size:22.5778px;stroke-width:0.264583"
         id="path840"
         inkscape:connector-curvature="0"
         sodipodi:nodetypes="ccscscsccscccscssscccscssccsccc" />
    </g>
    <g
       inkscape:export-ydpi="90.130997"
       inkscape:export-xdpi="90.130997"
       inkscape:export-filename="C:\Users\Ruben\Desktop\MyinT Logo v0.1.png"
       transform="matrix(1.5513353,0,0,1.5513353,13.333393,-290.01956)"
       id="g907"
       style="display:inline">
      <path
         sodipodi:nodetypes="cssscc"
         inkscape:connector-curvature="0"
         id="path903"
         d="m 33.820134,218.55615 c -1.516336,-1.3043 -1.990328,-2.31409 -1.990328,-4.24021 0,-3.52039 2.176043,-5.58139 5.892855,-5.58139 3.425028,0 5.461119,2.05322 5.461119,5.50706 0,3.00808 -1.858187,5.14406 -4.898213,5.63048 -1.985985,0.31781 -2.868433,0.0578 -4.465433,-1.31594 z"
         style="fill:#e6e6e6;stroke-width:0.692315" />
      <path
         style="opacity:1;fill:#d881f7;fill-opacity:1;stroke-width:0.525165"
         d="m 34.733324,217.40698 c -1.150236,-0.9894 -1.509788,-1.75538 -1.509788,-3.21648 0,-2.67043 1.650666,-4.23384 4.470103,-4.23384 2.598099,0 4.142602,1.5575 4.142602,4.17745 0,2.28183 -1.409552,3.90211 -3.715604,4.2711 -1.506494,0.24106 -2.175885,0.0439 -3.387313,-0.99823 z"
         id="path905"
         inkscape:connector-curvature="0"
         sodipodi:nodetypes="cssscc" />
    </g>
  </g>
</svg>
