<?xml version="1.0" encoding="UTF-8" standalone="no"?>
<!-- Created with Inkscape (http://www.inkscape.org/) -->

<svg
   xmlns:dc="http://purl.org/dc/elements/1.1/"
   xmlns:cc="http://creativecommons.org/ns#"
   xmlns:rdf="http://www.w3.org/1999/02/22-rdf-syntax-ns#"
   xmlns:svg="http://www.w3.org/2000/svg"
   xmlns="http://www.w3.org/2000/svg"
   xmlns:sodipodi="http://sodipodi.sourceforge.net/DTD/sodipodi-0.dtd"
   xmlns:inkscape="http://www.inkscape.org/namespaces/inkscape"
   width="76.691948mm"
   height="72.264175mm"
   viewBox="0 0 76.691948 72.264175"
   version="1.1"
   id="svg4742"
   inkscape:version="0.92.4 (5da689c313, 2019-01-14)"
   sodipodi:docname="Logo MyinT zonder tekst v0.2.svg">
  <defs
     id="defs4736" />
  <sodipodi:namedview
     id="base"
     pagecolor="#ffffff"
     bordercolor="#666666"
     borderopacity="1.0"
     inkscape:pageopacity="0.0"
     inkscape:pageshadow="2"
     inkscape:zoom="0.35"
     inkscape:cx="-119.35605"
     inkscape:cy="-234.86636"
     inkscape:document-units="mm"
     inkscape:current-layer="layer1"
     showgrid="false"
     fit-margin-top="0"
     fit-margin-left="0"
     fit-margin-right="0"
     fit-margin-bottom="0"
     inkscape:window-width="1920"
     inkscape:window-height="1057"
     inkscape:window-x="-8"
     inkscape:window-y="-8"
     inkscape:window-maximized="1" />
  <metadata
     id="metadata4739">
    <rdf:RDF>
      <cc:Work
         rdf:about="">
        <dc:format>image/svg+xml</dc:format>
        <dc:type
           rdf:resource="http://purl.org/dc/dcmitype/StillImage" />
        <dc:title></dc:title>
      </cc:Work>
    </rdf:RDF>
  </metadata>
  <g
     inkscape:label="Layer 1"
     inkscape:groupmode="layer"
     id="layer1"
     transform="translate(-11.546883,-14.427438)">
    <g
       inkscape:export-ydpi="90.130997"
       inkscape:export-xdpi="90.130997"
       inkscape:export-filename="C:\Users\Ruben\Desktop\MyinT Logo no text v0.2.png"
       style="display:inline"
       id="g862"
       transform="matrix(1.9095158,0.30340583,-0.30340583,1.9095158,55.115973,-389.70961)">
      <path
         style="fill:#e6e6e6;fill-opacity:1;stroke-width:0.36599183"
         d="m 39.693532,224.61838 c -0.102375,-0.2667 -0.140072,-2.78247 -0.08384,-5.59062 l 0.102374,-5.10574 h 5.490452 5.490453 v 5.4893 5.48931 l -5.406659,0.10132 c -4.223362,0.0792 -5.447387,-0.004 -5.592769,-0.38357 z m 11.54848,-11.29166 c 0,0 -0.549038,0.5953 0,0 z"
         id="path858"
         inkscape:connector-curvature="0"
         sodipodi:nodetypes="cccccccccccc" />
      <path
         sodipodi:nodetypes="cccccccccccc"
         inkscape:connector-curvature="0"
         id="path860"
         d="m 40.912309,223.58714 c -0.081,-0.21108 -0.110834,-2.20212 -0.06634,-4.42457 l 0.081,-4.0408 h 4.344372 4.34437 v 4.34438 4.34436 l -4.278068,0.0803 c -3.341774,0.0627 -4.310294,-0.003 -4.425331,-0.30357 z m 9.137842,-8.9365 c 0,0 -0.434432,0.47113 0,0 z"
         style="opacity:0.7;fill:#69c306;fill-opacity:1;stroke-width:0.28962475" />
    </g>
    <g
       inkscape:export-ydpi="90.130997"
       inkscape:export-xdpi="90.130997"
       inkscape:export-filename="C:\Users\Ruben\Desktop\MyinT Logo no text v0.2.png"
       style="display:inline"
       id="g868"
       transform="matrix(1.2579644,0,0,1.2579644,24.767913,-242.85277)">
      <path
         style="fill:#e6e6e6;stroke-width:0.69231534"
         d="m 33.820134,218.55615 c -1.516336,-1.3043 -1.990328,-2.31409 -1.990328,-4.24021 0,-3.52039 2.176043,-5.58139 5.892855,-5.58139 3.425028,0 5.461119,2.05322 5.461119,5.50706 0,3.00808 -1.858187,5.14406 -4.898213,5.63048 -1.985985,0.31781 -2.868433,0.0578 -4.465433,-1.31594 z"
         id="path864"
         inkscape:connector-curvature="0"
         sodipodi:nodetypes="cssscc" />
      <path
         sodipodi:nodetypes="cssscc"
         inkscape:connector-curvature="0"
         id="path866"
         d="m 35.115356,217.08751 c -1.014407,-0.87256 -1.3315,-1.54809 -1.3315,-2.83664 0,-2.35509 1.455741,-3.73387 3.942235,-3.73387 2.291293,0 3.653408,1.37357 3.653408,3.68414 0,2.01237 -1.2431,3.44131 -3.276833,3.76672 -1.328595,0.2126 -1.918939,0.0387 -2.98731,-0.88035 z"
         style="opacity:1;fill:#ed625e;fill-opacity:1;stroke-width:0.46314892" />
    </g>
    <g
       inkscape:export-ydpi="90.130997"
       inkscape:export-xdpi="90.130997"
       inkscape:export-filename="C:\Users\Ruben\Desktop\MyinT Logo no text v0.2.png"
       style="display:inline"
       transform="matrix(1.9071696,0,0,1.9071696,-30.334817,-341.10816)"
       id="g874">
      <path
         sodipodi:nodetypes="cssscc"
         inkscape:connector-curvature="0"
         id="path870"
         d="m 33.820134,218.55615 c -1.516336,-1.3043 -1.990328,-2.31409 -1.990328,-4.24021 0,-3.52039 2.176043,-5.58139 5.892855,-5.58139 3.425028,0 5.461119,2.05322 5.461119,5.50706 0,3.00808 -1.858187,5.14406 -4.898213,5.63048 -1.985985,0.31781 -2.868433,0.0578 -4.465433,-1.31594 z"
         style="fill:#e6e6e6;stroke-width:0.69231534" />
      <path
         style="opacity:0.7;fill:#63ca0c;fill-opacity:1;stroke-width:0.51861614"
         d="m 34.813969,217.43318 c -1.135894,-0.97706 -1.490962,-1.73349 -1.490962,-3.17636 0,-2.63714 1.630082,-4.18104 4.414361,-4.18104 2.565701,0 4.090944,1.53807 4.090944,4.12536 0,2.25337 -1.391975,3.85344 -3.66927,4.21782 -1.487709,0.23806 -2.148753,0.0433 -3.345073,-0.98578 z"
         id="path872"
         inkscape:connector-curvature="0"
         sodipodi:nodetypes="cssscc" />
    </g>
    <g
       inkscape:export-ydpi="90.130997"
       inkscape:export-xdpi="90.130997"
       inkscape:export-filename="C:\Users\Ruben\Desktop\MyinT Logo no text v0.2.png"
       style="display:inline"
       id="g880"
       transform="matrix(0.67347267,0.74331248,-0.74331248,0.67347267,193.4059,-159.16167)">
      <path
         sodipodi:nodetypes="cccccccccccc"
         inkscape:connector-curvature="0"
         id="path876"
         d="m 39.693532,224.61838 c -0.102375,-0.2667 -0.140072,-2.78247 -0.08384,-5.59062 l 0.102374,-5.10574 h 5.490452 5.490453 v 5.4893 5.48931 l -5.406659,0.10132 c -4.223362,0.0792 -5.447387,-0.004 -5.592769,-0.38357 z m 11.54848,-11.29166 c 0,0 -0.549038,0.5953 0,0 z"
         style="fill:#e6e6e6;fill-opacity:1;stroke-width:0.36599183" />
      <path
         style="opacity:0.7;fill:#fedb00;fill-opacity:1;stroke-width:0.23405829"
         d="m 41.827865,222.72746 c -0.06546,-0.17058 -0.08957,-1.77963 -0.05361,-3.57568 l 0.06546,-3.26555 h 3.510875 3.510874 v 3.51088 3.51087 l -3.457292,0.0649 c -2.700633,0.0506 -3.483336,-0.003 -3.576302,-0.24533 z m 7.384686,-7.22197 c 0,0 -0.351083,0.38074 0,0 z"
         id="path878"
         inkscape:connector-curvature="0"
         sodipodi:nodetypes="cccccccccccc" />
    </g>
    <g
       inkscape:export-ydpi="90.130997"
       inkscape:export-xdpi="90.130997"
       inkscape:export-filename="C:\Users\Ruben\Desktop\MyinT Logo no text v0.2.png"
       style="display:inline"
       transform="matrix(1.9443997,-0.47010225,0.47010225,1.9443997,-151.19548,-357.24444)"
       id="g886">
      <path
         sodipodi:nodetypes="cccccccccccc"
         inkscape:connector-curvature="0"
         id="path882"
         d="m 39.693532,224.61838 c -0.102375,-0.2667 -0.140072,-2.78247 -0.08384,-5.59062 l 0.102374,-5.10574 h 5.490452 5.490453 v 5.4893 5.48931 l -5.406659,0.10132 c -4.223362,0.0792 -5.447387,-0.004 -5.592769,-0.38357 z m 11.54848,-11.29166 c 0,0 -0.549038,0.5953 0,0 z"
         style="fill:#e6e6e6;fill-opacity:1;stroke-width:0.36599183" />
      <path
         style="opacity:0.7;fill:#ef2a24;fill-opacity:1;stroke-width:0.26394135"
         d="m 41.35007,223.21764 c -0.07382,-0.19236 -0.101006,-2.00684 -0.06045,-4.0322 l 0.07382,-3.68247 h 3.959121 3.95912 v 3.95912 3.95912 l -3.898697,0.0732 c -3.045433,0.0571 -3.928066,-0.003 -4.032902,-0.27665 z m 8.327515,-8.14403 c 0,0 -0.395907,0.42936 0,0 z"
         id="path884"
         inkscape:connector-curvature="0"
         sodipodi:nodetypes="cccccccccccc" />
    </g>
    <g
       inkscape:export-ydpi="90.130997"
       inkscape:export-xdpi="90.130997"
       inkscape:export-filename="C:\Users\Ruben\Desktop\MyinT Logo no text v0.2.png"
       style="display:inline"
       transform="matrix(0.33440045,0.98940435,-0.98940435,0.33440045,225.87524,-45.614111)"
       id="g892">
      <path
         inkscape:connector-curvature="0"
         id="path888"
         d="M 29.346468,224.72055 C 28.90968,225.16947 9.2777877,220.1963 9.1074045,219.59357 8.9370212,218.99084 23.059855,204.47571 23.667027,204.62952 c 0.607171,0.15381 6.11623,19.6421 5.679441,20.09103 z"
         inkscape:transform-center-y="-1.6258075"
         inkscape:transform-center-x="1.4684791"
         style="opacity:1;fill:#e6e6e6;fill-opacity:1;stroke:none;stroke-width:0.10166953;stroke-miterlimit:4;stroke-dasharray:none;stroke-opacity:0.99516913" />
      <path
         inkscape:connector-curvature="0"
         id="path890"
         d="m 26.574878,222.13663 c -0.303118,0.31153 -13.927054,-3.13969 -14.045295,-3.55797 -0.118241,-0.41828 9.682577,-10.49134 10.103935,-10.3846 0.421359,0.10674 4.244478,13.63103 3.94136,13.94257 z"
         inkscape:transform-center-y="-1.1282673"
         inkscape:transform-center-x="1.0190798"
         style="opacity:0.7;fill:#db84fa;fill-opacity:1;stroke:none;stroke-width:0.07055556;stroke-miterlimit:4;stroke-dasharray:none;stroke-opacity:0.99516913" />
    </g>
    <g
       inkscape:export-ydpi="90.130997"
       inkscape:export-xdpi="90.130997"
       inkscape:export-filename="C:\Users\Ruben\Desktop\MyinT Logo no text v0.2.png"
       style="display:inline"
       transform="matrix(-0.02290149,1.3757855,-1.3757855,-0.02290149,326.69459,4.349362)"
       id="g898"
       inkscape:transform-center-x="-19.398247"
       inkscape:transform-center-y="20.279973">
      <path
         style="fill:#e6e6e6;fill-opacity:1;stroke-width:0.36599183"
         d="m 39.693532,224.61838 c -0.102375,-0.2667 -0.140072,-2.78247 -0.08384,-5.59062 l 0.102374,-5.10574 h 5.490452 5.490453 v 5.4893 5.48931 l -5.406659,0.10132 c -4.223362,0.0792 -5.447387,-0.004 -5.592769,-0.38357 z m 11.54848,-11.29166 c 0,0 -0.549038,0.5953 0,0 z"
         id="path894"
         inkscape:connector-curvature="0"
         sodipodi:nodetypes="cccccccccccc" />
      <path
         sodipodi:nodetypes="cccccccccccc"
         inkscape:connector-curvature="0"
         id="path896"
         d="m 41.827865,222.72746 c -0.06546,-0.17058 -0.08957,-1.77963 -0.05361,-3.57568 l 0.06546,-3.26555 h 3.510875 3.510874 v 3.51088 3.51087 l -3.457292,0.0649 c -2.700633,0.0506 -3.483336,-0.003 -3.576302,-0.24533 z m 7.384686,-7.22197 c 0,0 -0.351083,0.38074 0,0 z"
         style="opacity:0.7;fill:#72d1f2;fill-opacity:1;stroke-width:0.23405829" />
    </g>
    <g
       inkscape:export-ydpi="90.130997"
       inkscape:export-xdpi="90.130997"
       inkscape:export-filename="C:\Users\Ruben\Desktop\MyinT Logo no text v0.2.png"
       style="display:inline"
       id="g904"
       transform="matrix(0.17968955,0.37744635,-0.37744635,0.17968955,118.50459,34.546242)">
      <path
         style="opacity:1;fill:#e6e6e6;fill-opacity:1;stroke:none;stroke-width:0.11610789;stroke-miterlimit:4;stroke-dasharray:none;stroke-opacity:0.99516913"
         inkscape:transform-center-x="1.6770223"
         inkscape:transform-center-y="-1.8566925"
         d="M 30.417433,226.29776 C 29.918615,226.81043 7.4987453,221.13101 7.3041656,220.44269 7.1095857,219.75436 23.238041,203.1779 23.931439,203.35355 c 0.693397,0.17565 6.984812,22.43153 6.485994,22.94421 z"
         id="path900"
         inkscape:connector-curvature="0" />
      <path
         style="opacity:0.7;fill:#fddc02;fill-opacity:1;stroke:none;stroke-width:0.07055556;stroke-miterlimit:4;stroke-dasharray:none;stroke-opacity:0.99516913"
         inkscape:transform-center-x="1.0190798"
         inkscape:transform-center-y="-1.1282673"
         d="m 26.574878,222.13663 c -0.303118,0.31153 -13.927054,-3.13969 -14.045295,-3.55797 -0.118241,-0.41828 9.682577,-10.49134 10.103935,-10.3846 0.421359,0.10674 4.244478,13.63103 3.94136,13.94257 z"
         id="path902"
         inkscape:connector-curvature="0" />
    </g>
    <g
       inkscape:export-ydpi="90.130997"
       inkscape:export-xdpi="90.130997"
       inkscape:export-filename="C:\Users\Ruben\Desktop\MyinT Logo no text v0.2.png"
       style="display:inline"
       transform="matrix(0.84423742,0.7745413,-0.7745413,0.84423742,194.10401,-173.32787)"
       id="g910">
      <path
         inkscape:connector-curvature="0"
         id="path906"
         d="M 29.346468,224.72055 C 28.90968,225.16947 9.2777877,220.1963 9.1074045,219.59357 8.9370212,218.99084 23.059855,204.47571 23.667027,204.62952 c 0.607171,0.15381 6.11623,19.6421 5.679441,20.09103 z"
         inkscape:transform-center-y="-1.6258075"
         inkscape:transform-center-x="1.4684791"
         style="opacity:1;fill:#e6e6e6;fill-opacity:1;stroke:none;stroke-width:0.10166953;stroke-miterlimit:4;stroke-dasharray:none;stroke-opacity:0.99516913" />
      <path
         inkscape:connector-curvature="0"
         id="path908"
         d="m 26.574878,222.13663 c -0.303118,0.31153 -13.927054,-3.13969 -14.045295,-3.55797 -0.118241,-0.41828 9.682577,-10.49134 10.103935,-10.3846 0.421359,0.10674 4.244478,13.63103 3.94136,13.94257 z"
         inkscape:transform-center-y="-1.1282673"
         inkscape:transform-center-x="1.0190798"
         style="opacity:0.7;fill:#3bc2f1;fill-opacity:1;stroke:none;stroke-width:0.07055556;stroke-miterlimit:4;stroke-dasharray:none;stroke-opacity:0.99516913" />
    </g>
    <g
       inkscape:export-ydpi="90.130997"
       inkscape:export-xdpi="90.130997"
       inkscape:export-filename="C:\Users\Ruben\Desktop\MyinT Logo no text v0.2.png"
       style="display:inline"
       id="g916"
       transform="matrix(0.20564803,1.1271025,-1.1271025,0.20564803,297.25878,-13.337241)">
      <path
         style="opacity:1;fill:#e6e6e6;fill-opacity:1;stroke:none;stroke-width:0.10166953;stroke-miterlimit:4;stroke-dasharray:none;stroke-opacity:0.99516913"
         inkscape:transform-center-x="1.4684791"
         inkscape:transform-center-y="-1.6258075"
         d="M 29.346468,224.72055 C 28.90968,225.16947 9.2777877,220.1963 9.1074045,219.59357 8.9370212,218.99084 23.059855,204.47571 23.667027,204.62952 c 0.607171,0.15381 6.11623,19.6421 5.679441,20.09103 z"
         id="path912"
         inkscape:connector-curvature="0" />
      <path
         style="opacity:0.7;fill:#ff6600;fill-opacity:1;stroke:none;stroke-width:0.07055556;stroke-miterlimit:4;stroke-dasharray:none;stroke-opacity:0.99516913"
         inkscape:transform-center-x="1.0190798"
         inkscape:transform-center-y="-1.1282673"
         d="m 26.574878,222.13663 c -0.303118,0.31153 -13.927054,-3.13969 -14.045295,-3.55797 -0.118241,-0.41828 9.682577,-10.49134 10.103935,-10.3846 0.421359,0.10674 4.244478,13.63103 3.94136,13.94257 z"
         id="path914"
         inkscape:connector-curvature="0" />
    </g>
    <g
       inkscape:export-ydpi="90.130997"
       inkscape:export-xdpi="90.130997"
       inkscape:export-filename="C:\Users\Ruben\Desktop\MyinT Logo no text v0.2.png"
       style="display:inline"
       transform="matrix(1.9757551,0,0,1.9757551,-48.097457,-391.83913)"
       id="g922">
      <path
         sodipodi:nodetypes="cssscc"
         inkscape:connector-curvature="0"
         id="path918"
         d="m 33.820134,218.55615 c -1.516336,-1.3043 -1.990328,-2.31409 -1.990328,-4.24021 0,-3.52039 2.176043,-5.58139 5.892855,-5.58139 3.425028,0 5.461119,2.05322 5.461119,5.50706 0,3.00808 -1.858187,5.14406 -4.898213,5.63048 -1.985985,0.31781 -2.868433,0.0578 -4.465433,-1.31594 z"
         style="fill:#e6e6e6;stroke-width:0.69231534" />
      <path
         style="opacity:1;fill:#f7df45;fill-opacity:1;stroke-width:0.5177592"
         d="m 34.777377,217.46909 c -1.134016,-0.97544 -1.488498,-1.73063 -1.488498,-3.17111 0,-2.63278 1.627389,-4.17413 4.407067,-4.17413 2.561461,0 4.084184,1.53552 4.084184,4.11854 0,2.24965 -1.389674,3.84707 -3.663207,4.21085 -1.48525,0.23767 -2.145202,0.0433 -3.339546,-0.98415 z"
         id="path920"
         inkscape:connector-curvature="0"
         sodipodi:nodetypes="cssscc" />
    </g>
    <g
       inkscape:export-ydpi="90.130997"
       inkscape:export-xdpi="90.130997"
       inkscape:export-filename="C:\Users\Ruben\Desktop\MyinT Logo no text v0.2.png"
       transform="matrix(1.5513353,0,0,1.5513353,-1.6071767,-296.26623)"
       id="g928"
       style="display:inline">
      <path
         sodipodi:nodetypes="cssscc"
         inkscape:connector-curvature="0"
         id="path924"
         d="m 33.820134,218.55615 c -1.516336,-1.3043 -1.990328,-2.31409 -1.990328,-4.24021 0,-3.52039 2.176043,-5.58139 5.892855,-5.58139 3.425028,0 5.461119,2.05322 5.461119,5.50706 0,3.00808 -1.858187,5.14406 -4.898213,5.63048 -1.985985,0.31781 -2.868433,0.0578 -4.465433,-1.31594 z"
         style="fill:#e6e6e6;stroke-width:0.69231534" />
      <path
         style="opacity:1;fill:#d881f7;fill-opacity:1;stroke-width:0.5251649"
         d="m 34.733324,217.40698 c -1.150236,-0.9894 -1.509788,-1.75538 -1.509788,-3.21648 0,-2.67043 1.650666,-4.23384 4.470103,-4.23384 2.598099,0 4.142602,1.5575 4.142602,4.17745 0,2.28183 -1.409552,3.90211 -3.715604,4.2711 -1.506494,0.24106 -2.175885,0.0439 -3.387313,-0.99823 z"
         id="path926"
         inkscape:connector-curvature="0"
         sodipodi:nodetypes="cssscc" />
    </g>
  </g>
</svg>
