<?xml version="1.0" encoding="UTF-8"?>
<svg width="130px" height="42px" viewBox="0 0 130 42" version="1.1" xmlns="http://www.w3.org/2000/svg" xmlns:xlink="http://www.w3.org/1999/xlink">
    <title>MyinT</title>
    <g id="Page-1" stroke="none" stroke-width="1" fill="none" fill-rule="evenodd">
        <g id="Artboard" transform="translate(-8.000000, -7.000000)" fill-rule="nonzero">
            <g id="MyinT" transform="translate(8.000000, 7.000000)">
                <polygon id="M" fill="#F5A623" points="5.136 32.496 5.136 8.16 15.36 22.848 26.064 8.064 26.064 32.496 31.344 32.496 31.344 0.48 25.92 0.48 15.6 15.36 5.52 0.48 2.48689958e-14 0.48 2.48689958e-14 32.496"></polygon>
                <path d="M42.432,41.808 C45.92,41.808 48.688,39.2 50.736,33.984 L50.736,33.984 L60.672,8.4 L55.44,8.4 L48.912,26.4 L42.336,8.4 L36.624,8.4 L46.464,32.352 C45.952,34.048 45.336,35.312 44.616,36.144 C43.896,36.976 42.912,37.392 41.664,37.392 C40.864,37.392 40.064,37.232 39.264,36.912 L39.264,36.912 L39.264,41.232 C40.128,41.616 41.184,41.808 42.432,41.808 Z" id="y" fill="#7ED321"></path>
                <path d="M71.088,4.56 L71.088,-1.0658141e-14 L65.712,-1.0658141e-14 L65.712,4.56 L71.088,4.56 Z M70.944,32.496 L70.896,8.544 L65.856,8.544 L65.856,32.496 L70.944,32.496 Z" id="i" fill="#BD10E0"></path>
                <path d="M83.232,32.496 L83.232,13.104 C84.896,12.496 86.64,12.192 88.464,12.192 C92.272,12.192 94.176,13.872 94.176,17.232 L94.176,17.232 L94.176,32.496 L99.216,32.496 L99.216,16.56 C99.216,13.584 98.416,11.392 96.816,9.984 C95.216,8.576 92.736,7.872 89.376,7.872 C87.488,7.872 85.512,8.104 83.448,8.568 C81.384,9.032 79.632,9.632 78.192,10.368 L78.192,10.368 L78.192,32.496 L83.232,32.496 Z" id="n" fill="#007AFF"></path>
                <polygon id="T" fill="#FF4E50" points="119.424 32.496 119.424 4.944 129.792 4.944 129.792 0.48 103.824 0.48 103.824 4.944 114.144 4.944 114.144 32.496"></polygon>
            </g>
        </g>
    </g>
</svg>